<svg width="150" height="150" viewBox="0 0 150 150" fill="none" xmlns="http://www.w3.org/2000/svg">
<path fill-rule="evenodd" clip-rule="evenodd" d="M75 0C33.5625 0 0 34.4114 0 76.897C0 110.924 21.4687 139.664 51.2812 149.853C55.0312 150.526 56.4375 148.219 56.4375 146.2C56.4375 144.374 56.3438 138.319 56.3438 131.878C37.5 135.435 32.625 127.168 31.125 122.843C30.2813 120.632 26.625 113.808 23.4375 111.981C20.8125 110.539 17.0625 106.983 23.3437 106.887C29.25 106.791 33.4687 112.462 34.875 114.769C41.625 126.4 52.4062 123.131 56.7187 121.113C57.375 116.115 59.3438 112.75 61.5 110.828C44.8125 108.905 27.375 102.273 27.375 72.8599C27.375 64.4974 30.2813 57.5767 35.0625 52.1939C34.3125 50.2714 31.6875 42.3895 35.8125 31.8161C35.8125 31.8161 42.0937 29.7976 56.4375 39.6981C62.4375 37.9679 68.8125 37.1028 75.1875 37.1028C81.5625 37.1028 87.9375 37.9679 93.9375 39.6981C108.281 29.7015 114.562 31.8161 114.562 31.8161C118.687 42.3895 116.063 50.2714 115.313 52.1939C120.094 57.5767 123 64.4013 123 72.8599C123 102.369 105.469 108.905 88.7812 110.828C91.5 113.231 93.8438 117.845 93.8438 125.054C93.8438 135.339 93.75 143.605 93.75 146.2C93.75 148.219 95.1562 150.622 98.9062 149.853C113.795 144.699 126.732 134.888 135.898 121.801C145.063 108.714 149.996 93.0088 150 76.897C150 34.4114 116.438 0 75 0Z" fill="black"/>
</svg>
