<svg width="280" height="77" viewBox="0 0 280 77" fill="none" xmlns="http://www.w3.org/2000/svg">
<path fill-rule="evenodd" clip-rule="evenodd" d="M115.813 63.1875H115.688C115.744 63.1875 115.781 63.25 115.838 63.2563H115.875L115.813 63.1938V63.1875ZM115.838 63.2563C115.256 63.2625 113.794 63.5687 112.25 63.5687C107.375 63.5687 105.687 61.3187 105.687 58.3812V38.8125H115.625C116.188 38.8125 116.625 38.3125 116.625 37.625V27C116.625 26.4375 116.125 25.9375 115.625 25.9375H105.687V12.75C105.687 12.25 105.375 11.9375 104.813 11.9375H91.3125C90.75 11.9375 90.4375 12.25 90.4375 12.75V26.3125C90.4375 26.3125 83.625 28 83.1875 28.0625C82.6875 28.1875 82.375 28.625 82.375 29.125V37.625C82.375 38.3125 82.875 38.8125 83.4375 38.8125H90.375V59.3125C90.375 74.5625 101 76.125 108.25 76.125C111.562 76.125 115.563 75.0625 116.188 74.75C116.563 74.625 116.75 74.1875 116.75 73.75V64.375C116.759 64.1091 116.671 63.849 116.503 63.6424C116.336 63.4358 116.099 63.2965 115.838 63.25V63.2563ZM263.937 49.5C263.937 38.1875 259.375 36.6875 254.562 37.1875C250.812 37.4375 247.813 39.3125 247.813 39.3125V61.3125C247.813 61.3125 250.875 63.4375 255.437 63.5625C261.875 63.75 263.937 61.4375 263.937 49.5ZM279.125 48.5C279.125 69.9375 272.188 76.0625 260.063 76.0625C249.813 76.0625 244.313 70.875 244.313 70.875C244.313 70.875 244.063 73.75 243.75 74.125C243.563 74.5 243.25 74.625 242.875 74.625H233.625C233 74.625 232.437 74.125 232.437 73.5625L232.562 4.125C232.562 3.5625 233.063 3.0625 233.625 3.0625H246.937C247.5 3.0625 248 3.5625 248 4.125V27.6875C248 27.6875 253.125 24.375 260.625 24.375L260.562 24.25C268.062 24.25 279.125 27.0625 279.125 48.5V48.5ZM224.625 25.9375H211.5C210.813 25.9375 210.437 26.4375 210.437 27.125V61.125C210.437 61.125 207 63.5625 202.312 63.5625C197.625 63.5625 196.25 61.4375 196.25 56.75V27.0625C196.25 26.5 195.75 26 195.187 26H181.813C181.25 26 180.75 26.5 180.75 27.0625V59C180.75 72.75 188.438 76.1875 199 76.1875C207.688 76.1875 214.75 71.375 214.75 71.375C214.75 71.375 215.062 73.8125 215.25 74.1875C215.375 74.5 215.812 74.75 216.25 74.75H224.625C225.312 74.75 225.688 74.25 225.688 73.6875L225.813 27C225.813 26.4375 225.312 25.9375 224.625 25.9375V25.9375ZM76.5 25.875H63.1875C62.625 25.875 62.125 26.4375 62.125 27.125V73C62.125 74.25 62.9375 74.6875 64 74.6875H76C77.25 74.6875 77.5625 74.125 77.5625 73V26.9375C77.5625 26.375 77.0625 25.875 76.5 25.875V25.875ZM69.9375 4.75C65.125 4.75 61.3125 8.5625 61.3125 13.375C61.3125 18.1875 65.125 22 69.9375 22C74.625 22 78.4375 18.1875 78.4375 13.375C78.4375 8.5625 74.625 4.75 69.9375 4.75ZM173 3.1875H159.812C159.25 3.1875 158.75 3.6875 158.75 4.25V29.8125H138.063V4.25C138.063 3.6875 137.563 3.1875 137 3.1875H123.688C123.125 3.1875 122.625 3.6875 122.625 4.25V73.6875C122.625 74.25 123.188 74.75 123.688 74.75H137C137.563 74.75 138.063 74.25 138.063 73.6875V44H158.75L158.625 73.6875C158.625 74.25 159.125 74.75 159.687 74.75H173C173.563 74.75 174.063 74.25 174.063 73.6875V4.25C174.063 3.6875 173.563 3.1875 173 3.1875V3.1875ZM55.0625 33.9375V69.8125C55.0625 70.0625 55 70.5 54.6875 70.625C54.6875 70.625 46.875 76.1875 34 76.1875C18.4375 76.1875 0 71.3125 0 39.1875C0 7.0625 16.125 0.437501 31.875 0.500001C45.5 0.500001 51 3.5625 51.875 4.125C52.125 4.4375 52.25 4.6875 52.25 5L49.625 16.125C49.625 16.6875 49.0625 17.375 48.375 17.1875C46.125 16.5 42.75 15.125 34.8125 15.125C25.625 15.125 15.75 17.75 15.75 38.4375C15.75 59.125 25.125 61.5625 31.875 61.5625C37.625 61.5625 39.6875 60.875 39.6875 60.875V46.5H30.5C29.8125 46.5 29.3125 46 29.3125 45.4375V33.9375C29.3125 33.375 29.8125 32.875 30.5 32.875H53.875C54.5625 32.875 55.0625 33.375 55.0625 33.9375Z" fill="black"/>
</svg>
